<svg width="55" height="191" viewBox="0 0 55 191" fill="none" xmlns="http://www.w3.org/2000/svg">
<path d="M26 190C26 190.552 26.4477 191 27 191C27.5523 191 28 190.552 28 190L26 190ZM27.7071 26.2929C27.3166 25.9024 26.6834 25.9024 26.2929 26.2929L19.9289 32.6569C19.5384 33.0474 19.5384 33.6805 19.9289 34.0711C20.3194 34.4616 20.9526 34.4616 21.3431 34.0711L27 28.4142L32.6568 34.0711C33.0474 34.4616 33.6805 34.4616 34.0711 34.0711C34.4616 33.6805 34.4616 33.0474 34.0711 32.6569L27.7071 26.2929ZM28 190L28 27L26 27L26 190L28 190Z" fill="white"/>
<mask id="path-2-inside-1_368_472" fill="white">
<path d="M31.2543 48.6049C31.3608 49.1468 31.8871 49.5019 32.4239 49.372C37.6786 48.1 42.3294 45.0139 45.545 40.6412C48.9584 35.9994 50.5059 30.2458 49.8815 24.518C49.257 18.7902 46.5061 13.5052 42.1727 9.708C37.8392 5.91078 32.2387 3.87778 26.4785 4.01098C20.7184 4.14418 15.2178 6.43388 11.0645 10.4274C6.91124 14.4208 4.40757 19.8273 4.04856 25.5779C3.68956 31.3284 5.50134 37.0043 9.12568 41.4834C12.5399 45.7027 17.3285 48.5706 22.6363 49.5983C23.1785 49.7033 23.6879 49.3242 23.7692 48.7779L23.7874 48.6558C23.8688 48.1095 23.4912 47.6032 22.9495 47.4958C18.1677 46.548 13.8561 43.9535 10.7765 40.1476C7.48664 36.082 5.84208 30.9299 6.16796 25.7102C6.49383 20.4904 8.76641 15.5829 12.5363 11.9581C16.3063 8.3332 21.2991 6.25484 26.5276 6.13393C31.7562 6.01303 36.8397 7.85838 40.7732 11.3051C44.7066 14.7518 47.2036 19.549 47.7704 24.7482C48.3372 29.9473 46.9326 35.1698 43.8342 39.3831C40.9338 43.3273 36.7468 46.1183 32.0139 47.2862C31.4777 47.4185 31.1239 47.9417 31.2304 48.4837L31.2543 48.6049Z"/>
</mask>
<path d="M31.2543 48.6049C31.3608 49.1468 31.8871 49.5019 32.4239 49.372C37.6786 48.1 42.3294 45.0139 45.545 40.6412C48.9584 35.9994 50.5059 30.2458 49.8815 24.518C49.257 18.7902 46.5061 13.5052 42.1727 9.708C37.8392 5.91078 32.2387 3.87778 26.4785 4.01098C20.7184 4.14418 15.2178 6.43388 11.0645 10.4274C6.91124 14.4208 4.40757 19.8273 4.04856 25.5779C3.68956 31.3284 5.50134 37.0043 9.12568 41.4834C12.5399 45.7027 17.3285 48.5706 22.6363 49.5983C23.1785 49.7033 23.6879 49.3242 23.7692 48.7779L23.7874 48.6558C23.8688 48.1095 23.4912 47.6032 22.9495 47.4958C18.1677 46.548 13.8561 43.9535 10.7765 40.1476C7.48664 36.082 5.84208 30.9299 6.16796 25.7102C6.49383 20.4904 8.76641 15.5829 12.5363 11.9581C16.3063 8.3332 21.2991 6.25484 26.5276 6.13393C31.7562 6.01303 36.8397 7.85838 40.7732 11.3051C44.7066 14.7518 47.2036 19.549 47.7704 24.7482C48.3372 29.9473 46.9326 35.1698 43.8342 39.3831C40.9338 43.3273 36.7468 46.1183 32.0139 47.2862C31.4777 47.4185 31.1239 47.9417 31.2304 48.4837L31.2543 48.6049Z" stroke="#FF0000" stroke-width="4" mask="url(#path-2-inside-1_368_472)"/>
</svg>
