<svg width="1512" height="806" viewBox="0 0 1512 806" fill="none" xmlns="http://www.w3.org/2000/svg">
<path d="M1512 200.049C1505.41 200.25 1498.86 201.471 1492.57 203.502C1475.88 208.896 1460.89 218.992 1449.09 231.607C1437.08 244.437 1425.63 261.436 1426.4 279.344C1417.01 277.391 1407.21 278.957 1398.52 283.45C1393.32 286.141 1388.66 289.908 1385.03 294.429C1384.12 295.563 1383.31 296.708 1382.59 297.895C1381.07 296.788 1379.51 295.722 1377.91 294.721C1366.39 287.496 1352.24 283.558 1338.79 287.692C1333.77 289.233 1329.26 291.753 1325.61 295.233C1312.69 274.173 1286.41 263.146 1261.64 269.291C1261.17 269.409 1260.69 269.547 1260.22 269.674C1260.01 269.225 1259.81 268.777 1259.62 268.336C1257.93 264.498 1256.07 260.733 1254.03 257.057C1245.76 242.132 1234.66 228.484 1221.25 217.629C1208.04 206.931 1192.53 198.675 1175.75 194.773C1159.24 190.936 1141.75 191.087 1125.31 195.191C1108.12 199.482 1092.18 208.411 1080.52 221.435C1072.25 215.48 1061.83 212.624 1051.54 213.295C1045.76 213.672 1040.15 215.048 1034.9 217.447C1032.56 218.515 1030.38 219.826 1028.31 221.316C1025.34 219.995 1022.28 218.835 1019.17 217.849C1006.03 213.698 991.917 212.457 978.16 212.74C964.548 213.02 950.781 214.867 937.858 219.139C914.394 226.894 893.615 243.069 884.727 266.086C883.839 268.381 883.295 270.819 882.297 273.068C881.946 273.859 881.509 274.794 880.938 275.461C880.729 275.704 880.515 275.981 880.209 276.113C880.19 276.111 880.188 276.109 880.162 276.107C878.874 275.983 877.255 274.635 876.11 274.059C874.872 273.439 873.616 272.858 872.342 272.31C869.165 270.944 865.919 269.741 862.581 268.801C850.136 265.291 836.752 264.967 824.132 267.78C800.567 273.033 779.421 290.948 771.401 313.363C761.311 307.072 749.895 303.474 737.609 303.847C723.858 304.263 710.74 309.669 700.616 318.7C699.735 319.485 698.892 320.302 698.067 321.132C690.499 317.33 682.167 314.851 673.92 313.141C647.19 307.6 616.736 307.517 593.796 323.975C584.883 330.368 577.593 338.496 573.196 348.217C556.802 335.04 535.854 327.274 514.616 326.432C491.155 325.502 468.236 333.823 450.358 348.468C442.401 354.987 435.413 362.943 430.504 371.913C422.783 363.272 413.32 356.585 401.881 352.965C394.803 350.725 386.955 349.638 379.282 350.105C376.776 342.416 372.891 335.303 367.668 329.043C357.444 316.79 341.236 309.49 324.965 310.393C317.943 310.784 310.427 312.621 304.234 316.26C303.752 315.416 303.279 314.566 302.76 313.746C301.442 311.657 300.029 309.624 298.525 307.657C295.551 303.762 292.35 299.999 288.85 296.541C281.842 289.612 273.625 283.713 264.704 279.334C245.829 270.069 223.774 267.529 203.208 272.42C192.512 274.964 181.98 279.328 173.158 285.821C164.215 270.991 150.351 257.777 132.693 254.254C116.184 250.96 96.7538 255.686 86.3109 268.885C78.2913 258.625 63.8224 252.921 51.1156 257.057C46.5453 245.876 41.7936 234.77 32.4374 226.409C27.5688 222.06 21.6941 218.676 15.2067 217.256C11.1968 216.379 7.08018 216.224 2.98972 216.457C2.01197 216.512 1.01001 216.561 0 216.616V461.521C123.311 467.918 247.04 470.271 370.474 472.497C498.734 474.812 627.024 475.536 755.304 474.607C884.116 473.675 1012.91 471.062 1141.65 466.715C1265.16 462.543 1388.67 457.049 1512 449.362L1512 200.049Z" fill="#E2F0FD"/>
<g filter="url(#filter0_f_91_6852)">
<ellipse cx="831.315" cy="362.369" rx="129.92" ry="130.026" fill="#D5D5D5"/>
</g>
<g filter="url(#filter1_ii_91_6852)">
<ellipse cx="829.326" cy="364" rx="134.89" ry="135" fill="#F1F1F1"/>
</g>
<g opacity="0.85">
<g opacity="0.93">
<g filter="url(#filter2_f_91_6852)">
<ellipse cx="5.12028" cy="2.88813" rx="5.12028" ry="2.88813" transform="matrix(0.821102 0.570781 -0.570154 0.821538 909.154 268.457)" fill="#DCDCDC"/>
</g>
<g filter="url(#filter3_di_91_6852)">
<ellipse cx="5.12028" cy="2.88813" rx="5.12028" ry="2.88813" transform="matrix(0.821102 0.570781 -0.570154 0.821538 909.658 268)" fill="#F4F4F4"/>
</g>
</g>
<g opacity="0.93">
<g filter="url(#filter4_f_91_6852)">
<ellipse cx="3.12757" cy="1.76413" rx="3.12757" ry="1.76413" transform="matrix(0.821102 0.570781 -0.570154 0.821538 911.07 278.342)" fill="#DCDCDC"/>
</g>
<g filter="url(#filter5_di_91_6852)">
<ellipse cx="3.12757" cy="1.76413" rx="3.12757" ry="1.76413" transform="matrix(0.821102 0.570781 -0.570154 0.821538 911.379 278.063)" fill="#F4F4F4"/>
</g>
</g>
<g opacity="0.93">
<g filter="url(#filter6_f_91_6852)">
<ellipse cx="2.01458" cy="1.13634" rx="2.01458" ry="1.13634" transform="matrix(0.821102 0.570781 -0.570154 0.821538 905.557 275.361)" fill="#DCDCDC"/>
</g>
<g filter="url(#filter7_di_91_6852)">
<ellipse cx="2.01458" cy="1.13634" rx="2.01458" ry="1.13634" transform="matrix(0.821102 0.570781 -0.570154 0.821538 905.756 275.181)" fill="#F4F4F4"/>
</g>
</g>
</g>
<g opacity="0.85">
<g opacity="0.93">
<g filter="url(#filter8_f_91_6852)">
<ellipse cx="12.2315" cy="6.89659" rx="12.2315" ry="6.89659" transform="matrix(0.932807 -0.35939 0.359135 0.933666 859.771 291.24)" fill="#DCDCDC"/>
</g>
<g filter="url(#filter9_di_91_6852)">
<ellipse cx="12.2315" cy="6.89659" rx="12.2315" ry="6.89659" transform="matrix(0.932807 -0.35939 0.359135 0.933666 859.543 289.631)" fill="#F4F4F4"/>
</g>
</g>
<g opacity="0.93">
<g filter="url(#filter10_f_91_6852)">
<ellipse cx="7.47127" cy="4.21258" rx="7.47127" ry="4.21258" transform="matrix(0.932807 -0.35939 0.359135 0.933666 881.859 300.707)" fill="#DCDCDC"/>
</g>
<g filter="url(#filter11_di_91_6852)">
<ellipse cx="7.47127" cy="4.21258" rx="7.47127" ry="4.21258" transform="matrix(0.932807 -0.35939 0.359135 0.933666 881.721 299.723)" fill="#F4F4F4"/>
</g>
</g>
<g opacity="0.93">
<g filter="url(#filter12_f_91_6852)">
<ellipse cx="4.81251" cy="2.71347" rx="4.81251" ry="2.71347" transform="matrix(0.932807 -0.35939 0.359135 0.933666 868.58 307.612)" fill="#DCDCDC"/>
</g>
<g filter="url(#filter13_di_91_6852)">
<ellipse cx="4.81251" cy="2.71347" rx="4.81251" ry="2.71347" transform="matrix(0.932807 -0.35939 0.359135 0.933666 868.49 306.977)" fill="#F4F4F4"/>
</g>
</g>
</g>
<g opacity="0.85">
<g opacity="0.93">
<g filter="url(#filter14_f_91_6852)">
<ellipse cx="11.4196" cy="6.44134" rx="11.4196" ry="6.44134" transform="matrix(0.821102 0.570781 -0.570154 0.821538 840.234 244.02)" fill="#DCDCDC"/>
</g>
<g filter="url(#filter15_di_91_6852)">
<ellipse cx="11.4196" cy="6.44134" rx="11.4196" ry="6.44134" transform="matrix(0.821102 0.570781 -0.570154 0.821538 841.359 243)" fill="#F4F4F4"/>
</g>
</g>
<g opacity="0.93">
<g filter="url(#filter16_f_91_6852)">
<ellipse cx="6.97536" cy="3.93451" rx="6.97536" ry="3.93451" transform="matrix(0.821102 0.570781 -0.570154 0.821538 844.51 266.066)" fill="#DCDCDC"/>
</g>
<g filter="url(#filter17_di_91_6852)">
<ellipse cx="6.97536" cy="3.93451" rx="6.97536" ry="3.93451" transform="matrix(0.821102 0.570781 -0.570154 0.821538 845.199 265.443)" fill="#F4F4F4"/>
</g>
</g>
<g opacity="0.93">
<g filter="url(#filter18_f_91_6852)">
<ellipse cx="4.49308" cy="2.53435" rx="4.49308" ry="2.53435" transform="matrix(0.821102 0.570781 -0.570154 0.821538 832.211 259.417)" fill="#DCDCDC"/>
</g>
<g filter="url(#filter19_di_91_6852)">
<ellipse cx="4.49308" cy="2.53435" rx="4.49308" ry="2.53435" transform="matrix(0.821102 0.570781 -0.570154 0.821538 832.654 259.016)" fill="#F4F4F4"/>
</g>
</g>
</g>
<g opacity="0.85">
<g opacity="0.93">
<g filter="url(#filter20_f_91_6852)">
<ellipse cx="11.4224" cy="6.43977" rx="11.4224" ry="6.43977" transform="matrix(0.837923 -0.5453 0.544966 0.838777 778.434 282.809)" fill="#DCDCDC"/>
</g>
<g filter="url(#filter21_di_91_6852)">
<ellipse cx="11.4224" cy="6.43977" rx="11.4224" ry="6.43977" transform="matrix(0.837923 -0.5453 0.544966 0.838777 777.918 281.379)" fill="#F4F4F4"/>
</g>
</g>
<g opacity="0.93">
<g filter="url(#filter22_f_91_6852)">
<ellipse cx="6.97706" cy="3.93355" rx="6.97706" ry="3.93355" transform="matrix(0.837923 -0.5453 0.544966 0.838777 800.447 287.169)" fill="#DCDCDC"/>
</g>
<g filter="url(#filter23_di_91_6852)">
<ellipse cx="6.97706" cy="3.93355" rx="6.97706" ry="3.93355" transform="matrix(0.837923 -0.5453 0.544966 0.838777 800.133 286.296)" fill="#F4F4F4"/>
</g>
</g>
<g opacity="0.93">
<g filter="url(#filter24_f_91_6852)">
<ellipse cx="4.49417" cy="2.53374" rx="4.49417" ry="2.53374" transform="matrix(0.837923 -0.5453 0.544966 0.838777 789.652 296.058)" fill="#DCDCDC"/>
</g>
<g filter="url(#filter25_di_91_6852)">
<ellipse cx="4.49417" cy="2.53374" rx="4.49417" ry="2.53374" transform="matrix(0.837923 -0.5453 0.544966 0.838777 789.447 295.495)" fill="#F4F4F4"/>
</g>
</g>
</g>
<path d="M1511.99 445.42C1511.05 446.404 1510.14 447.459 1508.97 447.958C1506.63 448.954 1503.65 448.488 1501.2 449.083C1490.68 451.633 1479.2 459.296 1469.96 464.685C1462.91 468.8 1456.67 474.977 1447.71 472.94C1436.08 470.298 1427.72 458.945 1417.51 453.155C1400.94 443.751 1386.73 456.812 1370.27 461.462C1367.69 462.191 1365.15 462.046 1362.57 462.574C1360.81 462.933 1362.08 464.974 1359.17 464.974C1358.21 464.974 1352.08 462.47 1350.92 462.069C1342.98 459.343 1335.22 456.299 1327.3 453.553C1310.62 447.773 1293.43 440.175 1278.8 430.241C1270.01 424.272 1259.98 418.906 1250.46 414.028C1244.89 411.17 1238.78 409.004 1233.07 406.364C1227.33 403.707 1223.47 398.825 1217.94 396.022C1204.34 389.14 1190.04 383.384 1176.96 375.526C1167.08 369.598 1156.74 364.47 1146.4 359.313C1140.85 356.542 1137.28 352.152 1132.13 349.096C1126.41 345.706 1119.55 344.049 1113.77 340.366C1106.78 335.908 1099.92 331.012 1093.11 326.897C1078.73 318.202 1062.9 322.266 1047.39 324.085C1036.81 325.326 1025.18 331.522 1015.63 336.018C1008.36 339.437 1000.93 341.625 993.963 345.812C987.598 349.636 981.577 353.321 974.573 356.009C962.181 360.768 950.524 368.546 937.787 372.212C929.891 374.485 922.148 376.561 914.368 378.458C903.509 381.105 892.21 387.934 881.887 392.339C870.113 397.361 857.819 401.859 846.62 407.888C834.439 414.446 821.392 419.213 808.53 424.309C797.607 428.638 786.354 436.137 774.677 437.989C766.257 439.324 758.061 438.814 749.893 441.585C740.218 444.867 731.034 449.729 721.772 453.954C711.513 458.632 700.247 460.237 689.829 464.772C682.456 467.981 674.439 469.66 666.958 472.738C661.271 475.079 656.618 478.49 651.119 481.045C638.969 486.69 625.297 488.715 612.468 492.315C601.435 495.412 590.834 498.205 579.67 500.483C562.728 503.942 544.095 502.85 527.775 497.781C516.718 494.348 507.734 489.245 497.37 484.347C488.189 480.008 480.101 470.522 469.578 470.033C456.847 469.442 445.217 469.796 433.551 474.749C423.558 478.993 418.923 482.636 408.753 478.192C379.817 465.548 373.897 457.055 345.009 473.474C340.138 476.242 334.744 480.168 329.732 482.377C323.727 485.024 319.821 481.546 314.387 478.869C302.569 473.052 292.231 466.555 281.14 459.887C261.216 447.911 238.347 439.112 217.39 428.895C194.265 417.622 171.229 406.378 148.106 395.107C142.094 392.174 134.52 389.757 129.26 385.664C125.163 382.474 125.753 381.506 120.457 380.866C107.616 379.312 94.2629 388.402 82.354 392.414C73.7467 395.315 64.7789 398.442 56.6429 402.468C47.3467 407.067 37.9316 410.143 28.2587 414.026C19.2969 417.624 10.2062 420.507 1.23828 423.883V801.985C39.9883 803.79 78.692 805.27 117.541 805.206C179.655 805.1 241.659 804.88 303.723 801.902C370.237 798.711 436.891 793.587 503.32 788.94C569.353 784.32 635.492 778.772 701.641 776.093C775.008 773.124 848.078 765.961 921.475 763.755C1009.27 761.118 1097.23 760.146 1185.06 759.27C1259.14 758.531 1332.07 752.898 1405.88 747.12C1441.29 744.349 1476.66 741.118 1512 737.51V445.42H1511.99Z" fill="#C4DADA"/>
<path d="M0 336.049C6.5903 336.25 13.1403 337.471 19.4302 339.502C36.1206 344.896 51.1055 354.992 62.9112 367.607C74.9185 380.437 86.3714 397.436 85.5972 415.344C94.9898 413.391 104.79 414.957 113.474 419.45C118.678 422.141 123.341 425.908 126.968 430.429C127.877 431.563 128.683 432.708 129.411 433.895C130.935 432.788 132.489 431.722 134.086 430.721C145.611 423.496 159.762 419.558 173.212 423.692C178.226 425.233 182.736 427.753 186.391 431.233C199.306 410.173 225.584 399.146 250.355 405.292C250.826 405.409 251.304 405.547 251.78 405.674C251.984 405.225 252.185 404.777 252.381 404.336C254.07 400.498 255.935 396.733 257.971 393.057C266.239 378.132 277.337 364.484 290.747 353.629C303.964 342.931 319.467 334.675 336.25 330.773C352.759 326.936 370.254 327.087 386.695 331.191C403.881 335.482 419.819 344.411 431.484 357.435C439.75 351.48 450.172 348.624 460.46 349.295C466.244 349.672 471.854 351.048 477.102 353.447C479.436 354.515 481.618 355.826 483.686 357.316C486.664 355.995 489.72 354.835 492.835 353.849C505.975 349.698 520.083 348.457 533.84 348.74C547.452 349.02 561.219 350.867 574.142 355.139C597.606 362.894 618.385 379.069 627.274 402.086C628.161 404.381 628.705 406.819 629.703 409.068C630.054 409.859 630.491 410.794 631.064 411.461C631.273 411.704 631.487 411.981 631.793 412.113C631.812 412.111 631.814 412.109 631.84 412.107C633.128 411.983 634.747 410.635 635.892 410.059C637.13 409.439 638.386 408.858 639.66 408.31C642.837 406.944 646.083 405.741 649.421 404.801C661.866 401.291 675.25 400.967 687.87 403.78C711.435 409.033 732.581 426.948 740.601 449.363C750.691 443.072 762.107 439.474 774.393 439.847C788.144 440.263 801.262 445.669 811.387 454.7C812.268 455.485 813.11 456.302 813.935 457.132C821.503 453.332 829.835 450.851 838.082 449.141C864.812 443.6 895.266 443.517 918.206 459.975C927.119 466.368 934.409 474.496 938.806 484.217C955.2 471.04 976.148 463.274 997.386 462.432C1020.85 461.502 1043.77 469.823 1061.64 484.468C1069.6 490.987 1076.59 498.943 1081.5 507.913C1089.22 499.272 1098.68 492.585 1110.12 488.965C1117.2 486.725 1125.05 485.638 1132.72 486.105C1135.23 478.416 1139.11 471.303 1144.33 465.043C1154.56 452.79 1170.77 445.49 1187.04 446.393C1194.06 446.784 1201.57 448.621 1207.77 452.26C1208.25 451.416 1208.72 450.566 1209.24 449.746C1210.56 447.657 1211.97 445.624 1213.48 443.657C1216.45 439.762 1219.65 435.999 1223.15 432.541C1230.16 425.612 1238.38 419.713 1247.3 415.334C1266.17 406.067 1288.23 403.529 1308.79 408.42C1319.49 410.964 1330.02 415.326 1338.84 421.821C1347.79 406.991 1361.65 393.777 1379.31 390.254C1395.82 386.96 1415.25 391.686 1425.69 404.885C1433.71 394.625 1448.18 388.921 1460.89 393.057C1465.45 381.876 1470.21 370.768 1479.56 362.409C1484.43 358.06 1490.31 354.676 1496.8 353.256C1500.81 352.379 1504.92 352.226 1509.01 352.457C1509.99 352.512 1510.99 352.561 1512 352.616V597.521C1388.69 603.918 1264.96 606.271 1141.53 608.497C1013.27 610.812 884.977 611.536 756.697 610.607C627.884 609.675 499.086 607.062 370.347 602.715C246.843 598.543 123.333 593.049 0 585.362L0 336.049Z" fill="#FDFEFF"/>
<path d="M1511.99 476.54C1505.5 473.168 1498.7 470.124 1492.16 466.946C1485.76 463.829 1476.96 462.211 1469.99 460.907C1459.9 459.018 1449.79 457.686 1439.65 456.068C1421.17 453.12 1407.5 439.354 1390.53 432.993C1381.14 429.469 1372.06 424.732 1363.26 421.185C1361.59 423.734 1359.52 422.116 1357.09 422.58C1355.69 422.847 1354.62 423.98 1353.23 424.487C1345.71 427.222 1337.14 429.086 1329.37 431.237C1321.23 433.49 1313.41 436.795 1305.37 439.34C1296.22 442.233 1288.49 447.183 1279.58 450.048C1273.63 451.965 1268.29 456.386 1262.35 458.747C1258.42 460.308 1254.57 462.156 1250.83 464.108C1243.24 468.076 1235.92 471.894 1227.86 474.916C1217.63 478.758 1205.86 482.34 1194.59 480.455C1188.14 479.376 1181.8 474.409 1175.95 471.713C1169.92 468.94 1163.54 466.679 1157.61 463.7C1151.95 460.86 1146.83 457.276 1140.86 455.107C1135.29 453.084 1133.02 453.469 1127.55 455.107C1120.87 457.113 1114.09 459.344 1107.67 462.254C1102.76 464.483 1097.69 465.513 1092.79 467.61C1089 469.23 1085.76 471.568 1081.74 472.713C1063.85 477.807 1047.52 486.792 1029.32 491.168C1023.63 492.535 1018.79 494.012 1013.28 491.614C1008.47 489.526 1004.55 486.645 1000.23 483.821C989.544 476.841 978.698 470.138 966.68 465.454C949.826 458.886 933.281 451.272 915.736 446.532C901.763 442.758 888.389 434.473 875.469 428.124C860.458 420.747 847.779 409.45 833.506 401.013C827.165 397.266 820.313 393.192 813.568 390.195C806.449 387.031 800.23 383.064 793.39 379.444C783.646 374.287 773.129 369.538 763.093 364.934C755.015 361.228 745.808 358.899 738.226 354.264C731.355 350.063 724.511 347.264 716.967 344.32C708.377 340.967 698.616 338.628 690.475 334.41C680.294 329.134 671.527 326.974 660.104 327.204C655.869 327.29 651.183 327.954 647.155 329.348C644.416 330.297 642.204 331.76 639.354 332.603C636.001 333.593 633.628 334.296 630.425 335.812C617.51 341.918 603.908 346.579 590.96 352.726C582.591 356.699 574.64 361.401 566.621 365.926C559.801 369.773 552.105 371.838 545.374 375.836C532.943 383.219 520.749 390.364 507.506 396.606C494.652 402.665 481.723 408.596 468.785 414.566C447.022 424.608 426.82 436.308 405.295 446.587C396.459 450.806 388.522 457.647 379.46 460.938C373.962 462.936 365.048 463.166 358.667 462.345C351.434 461.416 343.487 458.04 336.521 454.652C332.886 452.884 328.883 451.364 325.427 449.292C322.298 447.416 320.014 444.804 316.182 444.201C307.693 442.866 298.377 446.216 290.706 449.247C280.767 453.173 271.768 458.739 262.756 463.953C256.146 467.779 249.759 470.813 242.631 473.563C238.304 475.232 234.98 478.029 230.714 479.816C222.835 483.116 215.269 487.818 207.089 490.724C198.486 493.78 189.878 496.224 181.106 498.773C177.615 499.788 173.976 500.959 170.115 500.218C166.168 499.462 164.497 496.271 160.906 495.086C158.356 494.246 156.001 495.24 153.467 494.821C151.407 494.482 149.982 493.152 147.919 492.828C145.962 492.52 144.383 493.024 142.371 492.525C140.176 491.981 139.216 491.196 136.823 491.084C132.537 490.882 129.89 490.051 125.824 489.224C123.443 488.741 120.818 489.383 118.326 488.923C116.083 488.509 114.309 487.553 111.883 487.452C87.0746 486.429 64.9309 479.178 43.0352 467.801C39.233 465.825 36.4308 462.537 32.8161 460.408C30.4816 459.033 27.8568 458.285 25.4699 456.991C19.8714 453.958 15.1137 449.63 9.65037 446.497C6.49937 444.69 3.26975 442.976 0.00585938 441.308V689.403C25.5707 688.688 51.7161 690.685 77.1297 692.698C110.914 695.375 144.256 700.203 178.169 701.532C202.444 702.485 226.589 702.809 250.813 704.694C271.483 706.303 292.099 708.385 312.795 709.62C358.996 712.376 405.285 715.589 451.542 717.158C505.601 718.99 559.815 719.181 613.908 719.662C680.315 720.251 746.768 721.182 813.084 725.055C867.612 728.239 921.915 734.001 976.097 740.698C1024.7 746.706 1073.18 752.775 1122.26 752.824C1176.85 752.877 1231.1 749.275 1285.34 743.252C1346.7 736.436 1407.62 725.589 1468.45 715.288C1482.97 712.829 1497.49 710.282 1512 707.629V476.54H1511.99Z" fill="#94B6B5"/>
<path d="M644.452 475.205C648.893 471.511 652.084 466.565 656.411 462.57C661.868 457.535 669.283 453.074 677.034 450.099C671.738 448.693 666.315 448.082 660.102 448.208C655.866 448.294 651.181 448.958 647.153 450.352C644.413 451.301 642.202 452.764 639.351 453.607C635.999 454.597 633.626 455.3 630.422 456.814C617.508 462.92 603.906 467.581 590.957 473.728C582.589 477.701 574.638 482.403 566.618 486.928C559.798 490.775 552.103 492.84 545.372 496.838C532.941 504.223 520.746 511.366 507.503 517.608C494.649 523.667 481.721 529.598 468.782 535.568C447.02 545.61 426.817 557.31 405.293 567.589C396.456 571.808 388.519 578.649 379.458 581.94C377.843 582.528 375.918 582.944 373.865 583.244C374.317 583.286 374.801 583.309 375.355 583.299C380.617 583.205 383.633 584.88 388.296 586.004C395.225 587.675 398.664 585.383 405.309 582.854C413.377 579.78 421.275 576.551 429.212 573.33C434.746 571.085 440.145 571.174 445.612 568.442C459.154 561.676 472.498 548.15 488.142 547.237C490.761 547.083 493.748 547.843 496.256 547.142C498.778 546.437 502.221 544.349 504.743 543.316C508.951 541.592 511.713 538.306 515.785 536.378C518.478 535.101 521.277 534.704 524.043 533.685C528.185 532.159 531.768 529.478 535.85 527.771C540.816 525.693 546.7 525.387 551.055 522.146C553.744 520.143 555.817 517.291 558.504 515.214C564.364 510.683 569.449 506.698 575.979 503.145C591.387 494.762 609.267 493.492 625.386 486.525C632.565 483.42 638.511 480.148 644.452 475.205Z" fill="#A3C1BF"/>
<path d="M290.701 570.251C280.762 574.177 271.763 579.743 262.752 584.957C256.141 588.783 249.754 591.817 242.626 594.567C238.3 596.236 234.975 599.033 230.709 600.82C222.831 604.12 215.265 608.822 207.084 611.728C199.076 614.574 191.055 616.89 182.908 619.252C185.301 618.836 187.581 618.182 188.551 617.935C191.67 617.137 194.871 618.262 197.935 617.626C201.272 616.933 204.747 615.723 208.027 614.851C212.324 613.71 215.87 611.129 219.932 610.234C225.512 609.002 232.365 610.175 237.663 607.692C240.104 606.549 241.481 605.447 244.023 604.473C246.505 603.523 249.027 602.859 251.462 601.82C257.72 599.147 262.068 597.701 266.713 592.766C269.658 589.635 272.467 587.165 276.247 585.087C279.803 583.132 284.778 581.61 288.034 579.303C291.83 576.61 293.81 571.517 297.691 569.204C301.334 567.03 306.093 565.936 310.22 564.991C303.487 565.417 296.608 567.917 290.701 570.251Z" fill="#A3C1BF"/>
<path d="M1124.22 590.417C1130.14 585.375 1136.04 580.475 1143.46 577.887C1143.76 577.783 1144.07 577.684 1144.38 577.586C1143.23 577.05 1142.07 576.543 1140.86 576.105C1135.29 574.082 1133.01 574.465 1127.55 576.105C1120.87 578.111 1114.09 580.342 1107.67 583.252C1102.76 585.481 1097.69 586.511 1092.79 588.608C1089 590.228 1085.76 592.566 1081.74 593.711C1063.85 598.805 1047.52 607.791 1029.31 612.166C1027.14 612.689 1025.09 613.223 1023.08 613.555C1026.67 617.151 1028.41 618.818 1035.01 619.415C1047.88 620.584 1059.75 614.843 1071.61 610.729C1073.92 609.927 1077.23 608.49 1079.73 608.34C1082.89 608.152 1086.09 610.193 1089.28 610.409C1095.21 610.809 1099.22 608.154 1103.88 604.911C1108.04 602.016 1112.6 599.907 1116.9 597.218C1120.16 595.184 1121.31 592.9 1124.22 590.417Z" fill="#A3C1BF"/>
<path d="M1314.58 580.059C1318.97 578.099 1324.76 578.604 1329.42 577.539C1344.14 574.181 1350.81 565.651 1359.46 554.983C1362.45 551.292 1365.7 547.892 1369.25 544.738C1367.24 543.847 1365.24 542.981 1363.26 542.181C1361.59 544.73 1359.52 543.112 1357.09 543.576C1355.69 543.843 1354.62 544.976 1353.23 545.483C1345.71 548.218 1337.14 550.082 1329.37 552.233C1321.23 554.486 1313.41 557.791 1305.37 560.336C1296.22 563.229 1288.49 568.179 1279.58 571.046C1273.63 572.963 1268.29 577.384 1262.35 579.745C1258.42 581.306 1254.57 583.154 1250.83 585.106C1243.24 589.074 1235.92 592.892 1227.86 595.914C1217.96 599.634 1206.61 603.093 1195.68 601.602C1197.18 602.032 1198.66 602.56 1200.07 603.527C1202.53 605.2 1203.88 608.635 1205.86 610.407C1210.6 614.639 1224.75 610.442 1230.03 608.704C1242.41 604.638 1253.98 597.218 1266.47 594.164C1279.28 591.03 1292.57 590.297 1305.05 585.552C1308.73 584.154 1311.19 581.575 1314.58 580.059Z" fill="#A3C1BF"/>
<path d="M109.004 568.751C114.617 566.001 120.504 563.52 126.159 560.929C131.702 558.388 139.314 557.068 145.342 556.004C154.072 554.465 162.821 553.376 171.593 552.059C187.575 549.655 199.398 538.433 214.078 533.248C222.209 530.375 230.063 526.514 237.678 523.622C239.116 525.7 240.907 524.38 243.01 524.758C244.219 524.975 245.148 525.9 246.351 526.314C252.852 528.544 260.272 530.064 266.991 531.817C274.033 533.655 280.794 536.35 287.754 538.423C295.665 540.781 302.356 544.817 310.061 547.153C315.212 548.716 319.829 552.321 324.972 554.246C328.374 555.517 331.695 557.025 334.933 558.617C341.505 561.851 347.836 564.963 354.803 567.429C363.658 570.562 373.839 573.481 383.589 571.944C389.169 571.065 394.648 567.017 399.716 564.818C404.93 562.557 410.453 560.714 415.58 558.284C420.471 555.968 424.898 553.046 430.066 551.279C434.886 549.629 436.855 549.942 441.579 551.279C447.358 552.914 453.224 554.732 458.775 557.107C463.025 558.923 467.413 559.763 471.654 561.473C474.929 562.795 477.73 564.7 481.209 565.632C496.686 569.784 510.816 577.11 526.561 580.679C531.48 581.794 535.666 582.996 540.436 581.043C544.589 579.34 547.983 576.992 551.721 574.69C560.965 568.999 570.349 563.534 580.745 559.717C595.324 554.364 609.638 548.155 624.815 544.292C636.904 541.214 648.474 534.461 659.651 529.286C672.637 523.272 683.604 514.061 695.953 507.185C701.437 504.131 707.366 500.808 713.202 498.366C719.362 495.786 724.742 492.552 730.658 489.602C739.087 485.397 748.183 481.527 756.867 477.772C763.856 474.75 771.82 472.852 778.379 469.074C784.323 465.649 790.243 463.366 796.769 460.967C804.202 458.234 812.646 456.326 819.688 452.887C828.495 448.586 836.081 446.826 845.961 447.014C849.624 447.083 853.679 447.625 857.164 448.762C859.533 449.535 861.447 450.727 863.912 451.413C866.814 452.22 868.864 452.793 871.637 454.029C882.81 459.007 894.575 462.807 905.777 467.819C913.016 471.058 919.893 474.892 926.832 478.579C932.73 481.715 939.388 483.398 945.211 486.659C955.965 492.68 966.515 498.503 977.971 503.592C989.091 508.531 1000.27 513.367 1011.47 518.234C1030.29 526.42 1047.77 535.959 1066.39 544.34C1074.03 547.779 1080.9 553.355 1088.74 556.04C1093.5 557.668 1101.21 557.856 1106.73 557.186C1112.98 556.428 1119.86 553.675 1125.89 550.915C1129.03 549.475 1132.49 548.235 1135.48 546.546C1138.19 545.017 1140.17 542.888 1143.48 542.397C1150.83 541.308 1158.88 544.039 1165.52 546.51C1174.12 549.711 1181.9 554.248 1189.7 558.499C1195.42 561.617 1200.94 564.091 1207.11 566.333C1210.85 567.694 1213.73 569.974 1217.42 571.431C1224.24 574.121 1230.78 577.953 1237.86 580.325C1245.3 582.815 1252.75 584.809 1260.34 586.888C1263.36 587.714 1266.51 588.67 1269.85 588.065C1273.26 587.449 1274.71 584.848 1277.81 583.882C1280.02 583.196 1282.06 584.007 1284.25 583.665C1286.03 583.389 1287.26 582.305 1289.05 582.04C1290.74 581.787 1292.1 582.199 1293.84 581.794C1295.74 581.351 1296.58 580.71 1298.64 580.619C1302.35 580.455 1304.64 579.776 1308.16 579.104C1310.22 578.709 1312.49 579.234 1314.65 578.859C1316.59 578.521 1318.12 577.741 1320.22 577.659C1341.68 576.826 1360.84 570.914 1379.78 561.639C1383.07 560.028 1385.49 557.348 1388.62 555.614C1390.64 554.494 1392.91 553.882 1394.97 552.827C1399.82 550.356 1403.93 546.826 1408.66 544.273C1411.38 542.799 1414.18 541.402 1417 540.041V742.3C1394.89 741.718 1372.27 743.346 1350.28 744.988C1321.06 747.17 1292.21 751.105 1262.87 752.189C1241.87 752.964 1220.99 753.229 1200.03 754.766C1182.15 756.078 1164.32 757.774 1146.41 758.78C1106.44 761.027 1066.4 763.648 1026.39 764.926C979.619 766.42 932.719 766.576 885.924 766.966C828.477 767.448 770.988 768.204 713.622 771.361C666.449 773.958 619.475 778.654 572.601 784.116C530.556 789.014 488.617 793.961 446.155 794C398.931 794.043 352 791.107 305.078 786.194C251.996 780.638 199.297 771.795 146.67 763.397C134.114 761.393 121.549 759.315 109 757.152V568.751H109.004Z" fill="#81AAA8"/>
<defs>
<filter id="filter0_f_91_6852" x="469.999" y="0.947525" width="722.63" height="722.843" filterUnits="userSpaceOnUse" color-interpolation-filters="sRGB">
<feFlood flood-opacity="0" result="BackgroundImageFix"/>
<feBlend mode="normal" in="SourceGraphic" in2="BackgroundImageFix" result="shape"/>
<feGaussianBlur stdDeviation="115.698" result="effect1_foregroundBlur_91_6852"/>
</filter>
<filter id="filter1_ii_91_6852" x="694.436" y="175.283" width="329.779" height="323.717" filterUnits="userSpaceOnUse" color-interpolation-filters="sRGB">
<feFlood flood-opacity="0" result="BackgroundImageFix"/>
<feBlend mode="normal" in="SourceGraphic" in2="BackgroundImageFix" result="shape"/>
<feColorMatrix in="SourceAlpha" type="matrix" values="0 0 0 0 0 0 0 0 0 0 0 0 0 0 0 0 0 0 127 0" result="hardAlpha"/>
<feMorphology radius="9" operator="dilate" in="SourceAlpha" result="effect1_innerShadow_91_6852"/>
<feOffset dx="77.1317" dy="-53.7168"/>
<feGaussianBlur stdDeviation="34.5"/>
<feComposite in2="hardAlpha" operator="arithmetic" k2="-1" k3="1"/>
<feColorMatrix type="matrix" values="0 0 0 0 0 0 0 0 0 0 0 0 0 0 0 0 0 0 0.28 0"/>
<feBlend mode="normal" in2="shape" result="effect1_innerShadow_91_6852"/>
<feColorMatrix in="SourceAlpha" type="matrix" values="0 0 0 0 0 0 0 0 0 0 0 0 0 0 0 0 0 0 127 0" result="hardAlpha"/>
<feOffset dx="4.13206" dy="-8.26412"/>
<feGaussianBlur stdDeviation="7.57544"/>
<feComposite in2="hardAlpha" operator="arithmetic" k2="-1" k3="1"/>
<feColorMatrix type="matrix" values="0 0 0 0 1 0 0 0 0 1 0 0 0 0 1 0 0 0 0.41 0"/>
<feBlend mode="normal" in2="effect1_innerShadow_91_6852" result="effect2_innerShadow_91_6852"/>
</filter>
<filter id="filter2_f_91_6852" x="905.333" y="268.126" width="12.7574" height="11.2532" filterUnits="userSpaceOnUse" color-interpolation-filters="sRGB">
<feFlood flood-opacity="0" result="BackgroundImageFix"/>
<feBlend mode="normal" in="SourceGraphic" in2="BackgroundImageFix" result="shape"/>
<feGaussianBlur stdDeviation="0.93104" result="effect1_foregroundBlur_91_6852"/>
</filter>
<filter id="filter3_di_91_6852" x="906.768" y="269.531" width="9.96424" height="9.39113" filterUnits="userSpaceOnUse" color-interpolation-filters="sRGB">
<feFlood flood-opacity="0" result="BackgroundImageFix"/>
<feColorMatrix in="SourceAlpha" type="matrix" values="0 0 0 0 0 0 0 0 0 0 0 0 0 0 0 0 0 0 127 0" result="hardAlpha"/>
<feOffset dx="-0.310347" dy="0.310347"/>
<feGaussianBlur stdDeviation="0.155173"/>
<feComposite in2="hardAlpha" operator="out"/>
<feColorMatrix type="matrix" values="0 0 0 0 1 0 0 0 0 1 0 0 0 0 1 0 0 0 0.69 0"/>
<feBlend mode="normal" in2="BackgroundImageFix" result="effect1_dropShadow_91_6852"/>
<feBlend mode="normal" in="SourceGraphic" in2="effect1_dropShadow_91_6852" result="shape"/>
<feColorMatrix in="SourceAlpha" type="matrix" values="0 0 0 0 0 0 0 0 0 0 0 0 0 0 0 0 0 0 127 0" result="hardAlpha"/>
<feOffset dx="-0.93104" dy="1.86208"/>
<feGaussianBlur stdDeviation="2.79312"/>
<feComposite in2="hardAlpha" operator="arithmetic" k2="-1" k3="1"/>
<feColorMatrix type="matrix" values="0 0 0 0 0 0 0 0 0 0 0 0 0 0 0 0 0 0 0.15 0"/>
<feBlend mode="normal" in2="shape" result="effect2_innerShadow_91_6852"/>
</filter>
<filter id="filter4_f_91_6852" x="908.011" y="277.415" width="9.24174" height="8.32304" filterUnits="userSpaceOnUse" color-interpolation-filters="sRGB">
<feFlood flood-opacity="0" result="BackgroundImageFix"/>
<feBlend mode="normal" in="SourceGraphic" in2="BackgroundImageFix" result="shape"/>
<feGaussianBlur stdDeviation="0.93104" result="effect1_foregroundBlur_91_6852"/>
</filter>
<filter id="filter5_di_91_6852" x="909.251" y="278.998" width="6.44862" height="6.46096" filterUnits="userSpaceOnUse" color-interpolation-filters="sRGB">
<feFlood flood-opacity="0" result="BackgroundImageFix"/>
<feColorMatrix in="SourceAlpha" type="matrix" values="0 0 0 0 0 0 0 0 0 0 0 0 0 0 0 0 0 0 127 0" result="hardAlpha"/>
<feOffset dx="-0.310347" dy="0.310347"/>
<feGaussianBlur stdDeviation="0.155173"/>
<feComposite in2="hardAlpha" operator="out"/>
<feColorMatrix type="matrix" values="0 0 0 0 1 0 0 0 0 1 0 0 0 0 1 0 0 0 0.69 0"/>
<feBlend mode="normal" in2="BackgroundImageFix" result="effect1_dropShadow_91_6852"/>
<feBlend mode="normal" in="SourceGraphic" in2="effect1_dropShadow_91_6852" result="shape"/>
<feColorMatrix in="SourceAlpha" type="matrix" values="0 0 0 0 0 0 0 0 0 0 0 0 0 0 0 0 0 0 127 0" result="hardAlpha"/>
<feOffset dx="-0.93104" dy="1.86208"/>
<feGaussianBlur stdDeviation="2.79312"/>
<feComposite in2="hardAlpha" operator="arithmetic" k2="-1" k3="1"/>
<feColorMatrix type="matrix" values="0 0 0 0 0 0 0 0 0 0 0 0 0 0 0 0 0 0 0.15 0"/>
<feBlend mode="normal" in2="shape" result="effect2_innerShadow_91_6852"/>
</filter>
<filter id="filter6_f_91_6852" x="903.586" y="274.764" width="5.95355" height="5.36127" filterUnits="userSpaceOnUse" color-interpolation-filters="sRGB">
<feFlood flood-opacity="0" result="BackgroundImageFix"/>
<feBlend mode="normal" in="SourceGraphic" in2="BackgroundImageFix" result="shape"/>
<feGaussianBlur stdDeviation="0.599716" result="effect1_foregroundBlur_91_6852"/>
</filter>
<filter id="filter7_di_91_6852" x="904.385" y="275.783" width="4.1544" height="4.16183" filterUnits="userSpaceOnUse" color-interpolation-filters="sRGB">
<feFlood flood-opacity="0" result="BackgroundImageFix"/>
<feColorMatrix in="SourceAlpha" type="matrix" values="0 0 0 0 0 0 0 0 0 0 0 0 0 0 0 0 0 0 127 0" result="hardAlpha"/>
<feOffset dx="-0.199905" dy="0.199905"/>
<feGaussianBlur stdDeviation="0.0999526"/>
<feComposite in2="hardAlpha" operator="out"/>
<feColorMatrix type="matrix" values="0 0 0 0 1 0 0 0 0 1 0 0 0 0 1 0 0 0 0.69 0"/>
<feBlend mode="normal" in2="BackgroundImageFix" result="effect1_dropShadow_91_6852"/>
<feBlend mode="normal" in="SourceGraphic" in2="effect1_dropShadow_91_6852" result="shape"/>
<feColorMatrix in="SourceAlpha" type="matrix" values="0 0 0 0 0 0 0 0 0 0 0 0 0 0 0 0 0 0 127 0" result="hardAlpha"/>
<feOffset dx="-0.599716" dy="1.19943"/>
<feGaussianBlur stdDeviation="1.79915"/>
<feComposite in2="hardAlpha" operator="arithmetic" k2="-1" k3="1"/>
<feColorMatrix type="matrix" values="0 0 0 0 0 0 0 0 0 0 0 0 0 0 0 0 0 0 0.15 0"/>
<feBlend mode="normal" in2="shape" result="effect2_innerShadow_91_6852"/>
</filter>
<filter id="filter8_f_91_6852" x="857.533" y="281.039" width="32.2502" height="24.4894" filterUnits="userSpaceOnUse" color-interpolation-filters="sRGB">
<feFlood flood-opacity="0" result="BackgroundImageFix"/>
<feBlend mode="normal" in="SourceGraphic" in2="BackgroundImageFix" result="shape"/>
<feGaussianBlur stdDeviation="2.22367" result="effect1_foregroundBlur_91_6852"/>
</filter>
<filter id="filter9_di_91_6852" x="859.528" y="283.877" width="25.5791" height="20.0421" filterUnits="userSpaceOnUse" color-interpolation-filters="sRGB">
<feFlood flood-opacity="0" result="BackgroundImageFix"/>
<feColorMatrix in="SourceAlpha" type="matrix" values="0 0 0 0 0 0 0 0 0 0 0 0 0 0 0 0 0 0 127 0" result="hardAlpha"/>
<feOffset dx="-0.741224" dy="0.741224"/>
<feGaussianBlur stdDeviation="0.370612"/>
<feComposite in2="hardAlpha" operator="out"/>
<feColorMatrix type="matrix" values="0 0 0 0 1 0 0 0 0 1 0 0 0 0 1 0 0 0 0.69 0"/>
<feBlend mode="normal" in2="BackgroundImageFix" result="effect1_dropShadow_91_6852"/>
<feBlend mode="normal" in="SourceGraphic" in2="effect1_dropShadow_91_6852" result="shape"/>
<feColorMatrix in="SourceAlpha" type="matrix" values="0 0 0 0 0 0 0 0 0 0 0 0 0 0 0 0 0 0 127 0" result="hardAlpha"/>
<feOffset dx="-2.22367" dy="4.44734"/>
<feGaussianBlur stdDeviation="6.67101"/>
<feComposite in2="hardAlpha" operator="arithmetic" k2="-1" k3="1"/>
<feColorMatrix type="matrix" values="0 0 0 0 0 0 0 0 0 0 0 0 0 0 0 0 0 0 0.15 0"/>
<feBlend mode="normal" in2="shape" result="effect2_innerShadow_91_6852"/>
</filter>
<filter id="filter10_f_91_6852" x="878.762" y="292.745" width="23.1603" height="18.4201" filterUnits="userSpaceOnUse" color-interpolation-filters="sRGB">
<feFlood flood-opacity="0" result="BackgroundImageFix"/>
<feBlend mode="normal" in="SourceGraphic" in2="BackgroundImageFix" result="shape"/>
<feGaussianBlur stdDeviation="2.22367" result="effect1_foregroundBlur_91_6852"/>
</filter>
<filter id="filter11_di_91_6852" x="880.847" y="296.208" width="16.4893" height="13.9727" filterUnits="userSpaceOnUse" color-interpolation-filters="sRGB">
<feFlood flood-opacity="0" result="BackgroundImageFix"/>
<feColorMatrix in="SourceAlpha" type="matrix" values="0 0 0 0 0 0 0 0 0 0 0 0 0 0 0 0 0 0 127 0" result="hardAlpha"/>
<feOffset dx="-0.741224" dy="0.741224"/>
<feGaussianBlur stdDeviation="0.370612"/>
<feComposite in2="hardAlpha" operator="out"/>
<feColorMatrix type="matrix" values="0 0 0 0 1 0 0 0 0 1 0 0 0 0 1 0 0 0 0.69 0"/>
<feBlend mode="normal" in2="BackgroundImageFix" result="effect1_dropShadow_91_6852"/>
<feBlend mode="normal" in="SourceGraphic" in2="effect1_dropShadow_91_6852" result="shape"/>
<feColorMatrix in="SourceAlpha" type="matrix" values="0 0 0 0 0 0 0 0 0 0 0 0 0 0 0 0 0 0 127 0" result="hardAlpha"/>
<feOffset dx="-2.22367" dy="4.44734"/>
<feGaussianBlur stdDeviation="6.67101"/>
<feComposite in2="hardAlpha" operator="arithmetic" k2="-1" k3="1"/>
<feColorMatrix type="matrix" values="0 0 0 0 0 0 0 0 0 0 0 0 0 0 0 0 0 0 0.15 0"/>
<feBlend mode="normal" in2="shape" result="effect2_innerShadow_91_6852"/>
</filter>
<filter id="filter12_f_91_6852" x="866.585" y="302.484" width="14.9188" height="11.8651" filterUnits="userSpaceOnUse" color-interpolation-filters="sRGB">
<feFlood flood-opacity="0" result="BackgroundImageFix"/>
<feBlend mode="normal" in="SourceGraphic" in2="BackgroundImageFix" result="shape"/>
<feGaussianBlur stdDeviation="1.43235" result="effect1_foregroundBlur_91_6852"/>
</filter>
<filter id="filter13_di_91_6852" x="867.927" y="304.713" width="10.6218" height="9.00043" filterUnits="userSpaceOnUse" color-interpolation-filters="sRGB">
<feFlood flood-opacity="0" result="BackgroundImageFix"/>
<feColorMatrix in="SourceAlpha" type="matrix" values="0 0 0 0 0 0 0 0 0 0 0 0 0 0 0 0 0 0 127 0" result="hardAlpha"/>
<feOffset dx="-0.477449" dy="0.477449"/>
<feGaussianBlur stdDeviation="0.238724"/>
<feComposite in2="hardAlpha" operator="out"/>
<feColorMatrix type="matrix" values="0 0 0 0 1 0 0 0 0 1 0 0 0 0 1 0 0 0 0.69 0"/>
<feBlend mode="normal" in2="BackgroundImageFix" result="effect1_dropShadow_91_6852"/>
<feBlend mode="normal" in="SourceGraphic" in2="effect1_dropShadow_91_6852" result="shape"/>
<feColorMatrix in="SourceAlpha" type="matrix" values="0 0 0 0 0 0 0 0 0 0 0 0 0 0 0 0 0 0 127 0" result="hardAlpha"/>
<feOffset dx="-1.43235" dy="2.86469"/>
<feGaussianBlur stdDeviation="4.29704"/>
<feComposite in2="hardAlpha" operator="arithmetic" k2="-1" k3="1"/>
<feColorMatrix type="matrix" values="0 0 0 0 0 0 0 0 0 0 0 0 0 0 0 0 0 0 0.15 0"/>
<feBlend mode="normal" in2="shape" result="effect2_innerShadow_91_6852"/>
</filter>
<filter id="filter14_f_91_6852" x="831.712" y="243.281" width="28.4524" height="25.0982" filterUnits="userSpaceOnUse" color-interpolation-filters="sRGB">
<feFlood flood-opacity="0" result="BackgroundImageFix"/>
<feBlend mode="normal" in="SourceGraphic" in2="BackgroundImageFix" result="shape"/>
<feGaussianBlur stdDeviation="2.07648" result="effect1_foregroundBlur_91_6852"/>
</filter>
<filter id="filter15_di_91_6852" x="834.914" y="246.414" width="22.223" height="20.9452" filterUnits="userSpaceOnUse" color-interpolation-filters="sRGB">
<feFlood flood-opacity="0" result="BackgroundImageFix"/>
<feColorMatrix in="SourceAlpha" type="matrix" values="0 0 0 0 0 0 0 0 0 0 0 0 0 0 0 0 0 0 127 0" result="hardAlpha"/>
<feOffset dx="-0.69216" dy="0.69216"/>
<feGaussianBlur stdDeviation="0.34608"/>
<feComposite in2="hardAlpha" operator="out"/>
<feColorMatrix type="matrix" values="0 0 0 0 1 0 0 0 0 1 0 0 0 0 1 0 0 0 0.69 0"/>
<feBlend mode="normal" in2="BackgroundImageFix" result="effect1_dropShadow_91_6852"/>
<feBlend mode="normal" in="SourceGraphic" in2="effect1_dropShadow_91_6852" result="shape"/>
<feColorMatrix in="SourceAlpha" type="matrix" values="0 0 0 0 0 0 0 0 0 0 0 0 0 0 0 0 0 0 127 0" result="hardAlpha"/>
<feOffset dx="-2.07648" dy="4.15296"/>
<feGaussianBlur stdDeviation="6.22944"/>
<feComposite in2="hardAlpha" operator="arithmetic" k2="-1" k3="1"/>
<feColorMatrix type="matrix" values="0 0 0 0 0 0 0 0 0 0 0 0 0 0 0 0 0 0 0.15 0"/>
<feBlend mode="normal" in2="shape" result="effect2_innerShadow_91_6852"/>
</filter>
<filter id="filter16_f_91_6852" x="837.689" y="263.999" width="20.6106" height="18.563" filterUnits="userSpaceOnUse" color-interpolation-filters="sRGB">
<feFlood flood-opacity="0" result="BackgroundImageFix"/>
<feBlend mode="normal" in="SourceGraphic" in2="BackgroundImageFix" result="shape"/>
<feGaussianBlur stdDeviation="2.07648" result="effect1_foregroundBlur_91_6852"/>
</filter>
<filter id="filter17_di_91_6852" x="840.455" y="267.529" width="14.3812" height="14.41" filterUnits="userSpaceOnUse" color-interpolation-filters="sRGB">
<feFlood flood-opacity="0" result="BackgroundImageFix"/>
<feColorMatrix in="SourceAlpha" type="matrix" values="0 0 0 0 0 0 0 0 0 0 0 0 0 0 0 0 0 0 127 0" result="hardAlpha"/>
<feOffset dx="-0.69216" dy="0.69216"/>
<feGaussianBlur stdDeviation="0.34608"/>
<feComposite in2="hardAlpha" operator="out"/>
<feColorMatrix type="matrix" values="0 0 0 0 1 0 0 0 0 1 0 0 0 0 1 0 0 0 0.69 0"/>
<feBlend mode="normal" in2="BackgroundImageFix" result="effect1_dropShadow_91_6852"/>
<feBlend mode="normal" in="SourceGraphic" in2="effect1_dropShadow_91_6852" result="shape"/>
<feColorMatrix in="SourceAlpha" type="matrix" values="0 0 0 0 0 0 0 0 0 0 0 0 0 0 0 0 0 0 127 0" result="hardAlpha"/>
<feOffset dx="-2.07648" dy="4.15296"/>
<feGaussianBlur stdDeviation="6.22944"/>
<feComposite in2="hardAlpha" operator="arithmetic" k2="-1" k3="1"/>
<feColorMatrix type="matrix" values="0 0 0 0 0 0 0 0 0 0 0 0 0 0 0 0 0 0 0.15 0"/>
<feBlend mode="normal" in2="shape" result="effect2_innerShadow_91_6852"/>
</filter>
<filter id="filter18_f_91_6852" x="827.817" y="258.085" width="13.2759" height="11.9568" filterUnits="userSpaceOnUse" color-interpolation-filters="sRGB">
<feFlood flood-opacity="0" result="BackgroundImageFix"/>
<feBlend mode="normal" in="SourceGraphic" in2="BackgroundImageFix" result="shape"/>
<feGaussianBlur stdDeviation="1.33753" result="effect1_foregroundBlur_91_6852"/>
</filter>
<filter id="filter19_di_91_6852" x="829.598" y="260.359" width="9.26332" height="9.28176" filterUnits="userSpaceOnUse" color-interpolation-filters="sRGB">
<feFlood flood-opacity="0" result="BackgroundImageFix"/>
<feColorMatrix in="SourceAlpha" type="matrix" values="0 0 0 0 0 0 0 0 0 0 0 0 0 0 0 0 0 0 127 0" result="hardAlpha"/>
<feOffset dx="-0.445845" dy="0.445845"/>
<feGaussianBlur stdDeviation="0.222922"/>
<feComposite in2="hardAlpha" operator="out"/>
<feColorMatrix type="matrix" values="0 0 0 0 1 0 0 0 0 1 0 0 0 0 1 0 0 0 0.69 0"/>
<feBlend mode="normal" in2="BackgroundImageFix" result="effect1_dropShadow_91_6852"/>
<feBlend mode="normal" in="SourceGraphic" in2="effect1_dropShadow_91_6852" result="shape"/>
<feColorMatrix in="SourceAlpha" type="matrix" values="0 0 0 0 0 0 0 0 0 0 0 0 0 0 0 0 0 0 127 0" result="hardAlpha"/>
<feOffset dx="-1.33753" dy="2.67507"/>
<feGaussianBlur stdDeviation="4.0126"/>
<feComposite in2="hardAlpha" operator="arithmetic" k2="-1" k3="1"/>
<feColorMatrix type="matrix" values="0 0 0 0 0 0 0 0 0 0 0 0 0 0 0 0 0 0 0.15 0"/>
<feBlend mode="normal" in2="shape" result="effect2_innerShadow_91_6852"/>
</filter>
<filter id="filter20_f_91_6852" x="777.163" y="269.584" width="28.7004" height="24.7952" filterUnits="userSpaceOnUse" color-interpolation-filters="sRGB">
<feFlood flood-opacity="0" result="BackgroundImageFix"/>
<feBlend mode="normal" in="SourceGraphic" in2="BackgroundImageFix" result="shape"/>
<feGaussianBlur stdDeviation="2.07648" result="effect1_foregroundBlur_91_6852"/>
</filter>
<filter id="filter21_di_91_6852" x="778.724" y="272.308" width="22.471" height="20.6422" filterUnits="userSpaceOnUse" color-interpolation-filters="sRGB">
<feFlood flood-opacity="0" result="BackgroundImageFix"/>
<feColorMatrix in="SourceAlpha" type="matrix" values="0 0 0 0 0 0 0 0 0 0 0 0 0 0 0 0 0 0 127 0" result="hardAlpha"/>
<feOffset dx="-0.69216" dy="0.69216"/>
<feGaussianBlur stdDeviation="0.34608"/>
<feComposite in2="hardAlpha" operator="out"/>
<feColorMatrix type="matrix" values="0 0 0 0 1 0 0 0 0 1 0 0 0 0 1 0 0 0 0.69 0"/>
<feBlend mode="normal" in2="BackgroundImageFix" result="effect1_dropShadow_91_6852"/>
<feBlend mode="normal" in="SourceGraphic" in2="effect1_dropShadow_91_6852" result="shape"/>
<feColorMatrix in="SourceAlpha" type="matrix" values="0 0 0 0 0 0 0 0 0 0 0 0 0 0 0 0 0 0 127 0" result="hardAlpha"/>
<feOffset dx="-2.07648" dy="4.15296"/>
<feGaussianBlur stdDeviation="6.22944"/>
<feComposite in2="hardAlpha" operator="arithmetic" k2="-1" k3="1"/>
<feColorMatrix type="matrix" values="0 0 0 0 0 0 0 0 0 0 0 0 0 0 0 0 0 0 0.15 0"/>
<feBlend mode="normal" in2="shape" result="effect2_innerShadow_91_6852"/>
</filter>
<filter id="filter22_f_91_6852" x="798.056" y="277.475" width="20.7629" height="18.3779" filterUnits="userSpaceOnUse" color-interpolation-filters="sRGB">
<feFlood flood-opacity="0" result="BackgroundImageFix"/>
<feBlend mode="normal" in="SourceGraphic" in2="BackgroundImageFix" result="shape"/>
<feGaussianBlur stdDeviation="2.07648" result="effect1_foregroundBlur_91_6852"/>
</filter>
<filter id="filter23_di_91_6852" x="799.818" y="280.755" width="14.5335" height="14.225" filterUnits="userSpaceOnUse" color-interpolation-filters="sRGB">
<feFlood flood-opacity="0" result="BackgroundImageFix"/>
<feColorMatrix in="SourceAlpha" type="matrix" values="0 0 0 0 0 0 0 0 0 0 0 0 0 0 0 0 0 0 127 0" result="hardAlpha"/>
<feOffset dx="-0.69216" dy="0.69216"/>
<feGaussianBlur stdDeviation="0.34608"/>
<feComposite in2="hardAlpha" operator="out"/>
<feColorMatrix type="matrix" values="0 0 0 0 1 0 0 0 0 1 0 0 0 0 1 0 0 0 0.69 0"/>
<feBlend mode="normal" in2="BackgroundImageFix" result="effect1_dropShadow_91_6852"/>
<feBlend mode="normal" in="SourceGraphic" in2="effect1_dropShadow_91_6852" result="shape"/>
<feColorMatrix in="SourceAlpha" type="matrix" values="0 0 0 0 0 0 0 0 0 0 0 0 0 0 0 0 0 0 127 0" result="hardAlpha"/>
<feOffset dx="-2.07648" dy="4.15296"/>
<feGaussianBlur stdDeviation="6.22944"/>
<feComposite in2="hardAlpha" operator="arithmetic" k2="-1" k3="1"/>
<feColorMatrix type="matrix" values="0 0 0 0 0 0 0 0 0 0 0 0 0 0 0 0 0 0 0.15 0"/>
<feBlend mode="normal" in2="shape" result="effect2_innerShadow_91_6852"/>
</filter>
<filter id="filter24_f_91_6852" x="788.112" y="289.813" width="13.3736" height="11.8379" filterUnits="userSpaceOnUse" color-interpolation-filters="sRGB">
<feFlood flood-opacity="0" result="BackgroundImageFix"/>
<feBlend mode="normal" in="SourceGraphic" in2="BackgroundImageFix" result="shape"/>
<feGaussianBlur stdDeviation="1.33753" result="effect1_foregroundBlur_91_6852"/>
</filter>
<filter id="filter25_di_91_6852" x="789.244" y="291.926" width="9.36097" height="9.16286" filterUnits="userSpaceOnUse" color-interpolation-filters="sRGB">
<feFlood flood-opacity="0" result="BackgroundImageFix"/>
<feColorMatrix in="SourceAlpha" type="matrix" values="0 0 0 0 0 0 0 0 0 0 0 0 0 0 0 0 0 0 127 0" result="hardAlpha"/>
<feOffset dx="-0.445845" dy="0.445845"/>
<feGaussianBlur stdDeviation="0.222922"/>
<feComposite in2="hardAlpha" operator="out"/>
<feColorMatrix type="matrix" values="0 0 0 0 1 0 0 0 0 1 0 0 0 0 1 0 0 0 0.69 0"/>
<feBlend mode="normal" in2="BackgroundImageFix" result="effect1_dropShadow_91_6852"/>
<feBlend mode="normal" in="SourceGraphic" in2="effect1_dropShadow_91_6852" result="shape"/>
<feColorMatrix in="SourceAlpha" type="matrix" values="0 0 0 0 0 0 0 0 0 0 0 0 0 0 0 0 0 0 127 0" result="hardAlpha"/>
<feOffset dx="-1.33753" dy="2.67507"/>
<feGaussianBlur stdDeviation="4.0126"/>
<feComposite in2="hardAlpha" operator="arithmetic" k2="-1" k3="1"/>
<feColorMatrix type="matrix" values="0 0 0 0 0 0 0 0 0 0 0 0 0 0 0 0 0 0 0.15 0"/>
<feBlend mode="normal" in2="shape" result="effect2_innerShadow_91_6852"/>
</filter>
</defs>
</svg>
